<svg width="410" height="113" viewBox="0 0 410 113" fill="none" xmlns="http://www.w3.org/2000/svg">
<path d="M47.5 8.04145C51.8316 5.54059 57.1684 5.54059 61.5 8.04145L94.6984 27.2085C99.03 29.7094 101.698 34.3312 101.698 39.3329V77.6671C101.698 82.6688 99.03 87.2906 94.6984 89.7915L61.5 108.959C57.1684 111.459 51.8316 111.459 47.5 108.959L14.3016 89.7915C9.97 87.2906 7.30162 82.6688 7.30162 77.6671V39.3329C7.30162 34.3312 9.97 29.7094 14.3016 27.2085L47.5 8.04145Z" fill="url(#paint0_linear_413_4)"/>
<mask id="path-2-inside-1_413_4" fill="white">
<path fill-rule="evenodd" clip-rule="evenodd" d="M69.5998 84.7942C71.2441 82.1177 72.1923 78.9677 72.1923 75.5962C72.1923 65.8781 64.3143 58 54.5962 58C44.8781 58 37 65.8781 37 75.5962C37 78.9677 37.9482 82.1177 39.5925 84.7942H39.3574L40.0558 85.509C41.2189 87.2117 42.6733 88.6996 44.3471 89.9011L54.5962 100.391L64.8452 89.9011C66.5191 88.6996 67.9734 87.2117 69.1365 85.509L69.8349 84.7942H69.5998Z"/>
</mask>
<path d="M69.5998 84.7942L66.1916 82.7003L62.4478 88.7942H69.5998V84.7942ZM39.5925 84.7942V88.7942H46.7445L43.0007 82.7003L39.5925 84.7942ZM39.3574 84.7942V80.7942H29.8569L36.4964 87.5896L39.3574 84.7942ZM40.0558 85.509L43.3588 83.2528L43.1614 82.9638L42.9169 82.7135L40.0558 85.509ZM44.3471 89.9011L47.2082 87.1056L46.9637 86.8554L46.6795 86.6514L44.3471 89.9011ZM54.5962 100.391L51.7351 103.186L54.5962 106.114L57.4572 103.186L54.5962 100.391ZM64.8452 89.9011L62.5128 86.6514L62.2286 86.8554L61.9841 87.1056L64.8452 89.9011ZM69.1365 85.509L66.2754 82.7136L66.0309 82.9638L65.8335 83.2528L69.1365 85.509ZM69.8349 84.7942L72.696 87.5896L79.3354 80.7942H69.8349V84.7942ZM68.1923 75.5962C68.1923 78.2076 67.4601 80.6357 66.1916 82.7003L73.008 86.888C75.0282 83.5998 76.1923 79.7278 76.1923 75.5962H68.1923ZM54.5962 62C62.1051 62 68.1923 68.0872 68.1923 75.5962H76.1923C76.1923 63.6689 66.5234 54 54.5962 54V62ZM41 75.5962C41 68.0872 47.0872 62 54.5962 62V54C42.6689 54 33 63.6689 33 75.5962H41ZM43.0007 82.7003C41.7323 80.6357 41 78.2076 41 75.5962H33C33 79.7278 34.1642 83.5998 36.1843 86.888L43.0007 82.7003ZM39.5925 80.7942H39.3574V88.7942H39.5925V80.7942ZM36.4964 87.5896L37.1948 88.3044L42.9169 82.7135L42.2185 81.9988L36.4964 87.5896ZM46.6795 86.6514C45.3843 85.7218 44.2585 84.57 43.3588 83.2528L36.7528 87.7651C38.1793 89.8534 39.9622 91.6775 42.0148 93.1507L46.6795 86.6514ZM41.4861 92.6965L51.7351 103.186L57.4572 97.5954L47.2082 87.1056L41.4861 92.6965ZM57.4572 103.186L67.7062 92.6965L61.9841 87.1056L51.7351 97.5954L57.4572 103.186ZM65.8335 83.2528C64.9338 84.57 63.808 85.7218 62.5128 86.6514L67.1776 93.1507C69.2301 91.6775 71.0131 89.8534 72.4395 87.7651L65.8335 83.2528ZM71.9976 88.3044L72.696 87.5896L66.9738 81.9988L66.2754 82.7136L71.9976 88.3044ZM69.8349 80.7942H69.5998V88.7942H69.8349V80.7942Z" fill="white" mask="url(#path-2-inside-1_413_4)"/>
<mask id="path-4-inside-2_413_4" fill="white">
<path fill-rule="evenodd" clip-rule="evenodd" d="M67.0918 36.0582C69.2167 34.7528 71.7175 34 74.3941 34C82.1093 34 88.3636 40.2544 88.3636 47.9695C88.3636 55.6847 82.1093 61.9391 74.3941 61.9391C71.7175 61.9391 69.2167 61.1863 67.0918 59.8809V60.0675L66.5244 59.5131C65.1726 58.5897 63.9913 57.4351 63.0375 56.1062L54.7098 47.9695L63.0375 39.8329C63.9913 38.504 65.1726 37.3494 66.5244 36.426L67.0918 35.8716V36.0582Z"/>
</mask>
<path d="M67.0918 36.0582L69.1857 39.4664L63.0918 43.2102V36.0582H67.0918ZM67.0918 59.8809H63.0918V52.7289L69.1857 56.4727L67.0918 59.8809ZM67.0918 60.0675H71.0918V69.5681L64.2964 62.9286L67.0918 60.0675ZM66.5244 59.5131L68.7805 56.2101L69.0695 56.4075L69.3198 56.652L66.5244 59.5131ZM63.0375 56.1062L65.8329 53.2451L66.0831 53.4896L66.2871 53.7738L63.0375 56.1062ZM54.7098 47.9695L51.9143 50.8306L48.9861 47.9695L51.9143 45.1085L54.7098 47.9695ZM63.0375 39.8329L66.2871 42.1653L66.0831 42.4495L65.8329 42.6939L63.0375 39.8329ZM66.5244 36.426L69.3198 39.2871L69.0695 39.5316L68.7805 39.729L66.5244 36.426ZM67.0918 35.8716L64.2964 33.0105L71.0918 26.371V35.8716H67.0918ZM74.3941 38C72.4776 38 70.6987 38.5369 69.1857 39.4664L64.998 32.65C67.7346 30.9687 70.9573 30 74.3941 30V38ZM84.3636 47.9695C84.3636 42.4635 79.9001 38 74.3941 38V30C84.3184 30 92.3636 38.0452 92.3636 47.9695H84.3636ZM74.3941 57.9391C79.9001 57.9391 84.3636 53.4756 84.3636 47.9695H92.3636C92.3636 57.8938 84.3184 65.9391 74.3941 65.9391V57.9391ZM69.1857 56.4727C70.6987 57.4022 72.4776 57.9391 74.3941 57.9391V65.9391C70.9573 65.9391 67.7346 64.9704 64.998 63.2891L69.1857 56.4727ZM71.0918 59.8809V60.0675H63.0918V59.8809H71.0918ZM64.2964 62.9286L63.729 62.3741L69.3198 56.652L69.8873 57.2065L64.2964 62.9286ZM66.2871 53.7738C66.9691 54.7241 67.8143 55.5501 68.7805 56.2101L64.2682 62.8161C62.5309 61.6294 61.0135 60.1462 59.7879 58.4386L66.2871 53.7738ZM60.2421 58.9673L51.9143 50.8306L57.5052 45.1085L65.8329 53.2451L60.2421 58.9673ZM51.9143 45.1085L60.2421 36.9718L65.8329 42.6939L57.5052 50.8306L51.9143 45.1085ZM68.7805 39.729C67.8143 40.389 66.9691 41.215 66.2871 42.1653L59.7879 37.5005C61.0135 35.7929 62.5309 34.3097 64.2682 33.123L68.7805 39.729ZM63.7289 33.565L64.2964 33.0105L69.8873 38.7326L69.3198 39.2871L63.7289 33.565ZM71.0918 35.8716V36.0582H63.0918V35.8716H71.0918Z" fill="white" mask="url(#path-4-inside-2_413_4)"/>
<mask id="path-6-inside-3_413_4" fill="white">
<path fill-rule="evenodd" clip-rule="evenodd" d="M42.2718 59.8809C40.147 61.1863 37.6462 61.9391 34.9695 61.9391C27.2544 61.9391 21 55.6847 21 47.9695C21 40.2544 27.2544 34 34.9695 34C37.6462 34 40.147 34.7528 42.2718 36.0582V35.8716L42.8393 36.426C44.1911 37.3494 45.3723 38.504 46.3262 39.8329L54.6539 47.9695L46.3261 56.1062C45.3723 57.4351 44.1911 58.5897 42.8393 59.5131L42.2718 60.0675V59.8809Z"/>
</mask>
<path d="M42.2718 59.8809L40.1779 56.4727L46.2718 52.7289V59.8809H42.2718ZM42.2718 36.0582H46.2718V43.2102L40.1779 39.4664L42.2718 36.0582ZM42.2718 35.8716H38.2718V26.371L45.0672 33.0105L42.2718 35.8716ZM42.8393 36.426L40.5831 39.729L40.2942 39.5316L40.0439 39.2871L42.8393 36.426ZM46.3262 39.8329L43.5307 42.6939L43.2805 42.4495L43.0765 42.1653L46.3262 39.8329ZM54.6539 47.9695L57.4493 45.1085L60.3776 47.9695L57.4493 50.8306L54.6539 47.9695ZM46.3261 56.1062L43.0765 53.7738L43.2805 53.4896L43.5307 53.2452L46.3261 56.1062ZM42.8393 59.5131L40.0439 56.652L40.2942 56.4074L40.5831 56.2101L42.8393 59.5131ZM42.2718 60.0675L45.0672 62.9286L38.2718 69.5681V60.0675H42.2718ZM34.9695 57.9391C36.886 57.9391 38.6649 57.4022 40.1779 56.4727L44.3657 63.2891C41.629 64.9704 38.4063 65.9391 34.9695 65.9391V57.9391ZM25 47.9695C25 53.4756 29.4635 57.9391 34.9695 57.9391V65.9391C25.0452 65.9391 17 57.8938 17 47.9695H25ZM34.9695 38C29.4635 38 25 42.4635 25 47.9695H17C17 38.0452 25.0452 30 34.9695 30V38ZM40.1779 39.4664C38.6649 38.5368 36.886 38 34.9695 38V30C38.4063 30 41.629 30.9687 44.3657 32.65L40.1779 39.4664ZM38.2718 36.0582V35.8716H46.2718V36.0582H38.2718ZM45.0672 33.0105L45.6347 33.5649L40.0439 39.2871L39.4764 38.7326L45.0672 33.0105ZM43.0765 42.1653C42.3945 41.215 41.5493 40.389 40.5831 39.729L45.0954 33.123C46.8328 34.3097 48.3502 35.7929 49.5758 37.5005L43.0765 42.1653ZM49.1216 36.9718L57.4493 45.1085L51.8585 50.8306L43.5307 42.6939L49.1216 36.9718ZM57.4493 50.8306L49.1215 58.9673L43.5307 53.2452L51.8585 45.1085L57.4493 50.8306ZM40.5831 56.2101C41.5494 55.5501 42.3945 54.7241 43.0765 53.7738L49.5757 58.4386C48.3502 60.1462 46.8328 61.6293 45.0954 62.816L40.5831 56.2101ZM45.6347 62.3741L45.0672 62.9286L39.4764 57.2065L40.0439 56.652L45.6347 62.3741ZM38.2718 60.0675V59.8809H46.2718V60.0675H38.2718Z" fill="white" mask="url(#path-6-inside-3_413_4)"/>
<path fill-rule="evenodd" clip-rule="evenodd" d="M45 27C45 32.5228 49.4772 37 55 37C60.5228 37 65 32.5228 65 27H62C62 30.866 58.866 34 55 34C51.134 34 48 30.866 48 27H45Z" fill="white"/>
<path d="M142.188 86V28.8906H154.297V86H142.188ZM192.539 41.5078C197.201 41.5078 200.951 42.7839 203.789 45.3359C206.628 47.862 208.047 51.9245 208.047 57.5234V86H196.133V60.4922C196.133 57.3672 195.56 55.0104 194.414 53.4219C193.294 51.8333 191.523 51.0391 189.102 51.0391C185.456 51.0391 182.969 52.276 181.641 54.75C180.312 57.224 179.648 60.7917 179.648 65.4531V86H167.734V42.3281H176.836L178.438 47.9141H179.102C180.039 46.4036 181.198 45.1797 182.578 44.2422C183.984 43.3047 185.534 42.6146 187.227 42.1719C188.945 41.7292 190.716 41.5078 192.539 41.5078ZM238.711 77.2891C240.013 77.2891 241.276 77.1589 242.5 76.8984C243.75 76.638 244.987 76.3125 246.211 75.9219V84.7891C244.935 85.362 243.346 85.8307 241.445 86.1953C239.57 86.5859 237.513 86.7812 235.273 86.7812C232.669 86.7812 230.326 86.3646 228.242 85.5312C226.185 84.6719 224.557 83.2005 223.359 81.1172C222.188 79.0078 221.602 76.0781 221.602 72.3281V51.2734H215.898V46.2344L222.461 42.25L225.898 33.0312H233.516V42.3281H245.742V51.2734H233.516V72.3281C233.516 73.9948 233.984 75.2448 234.922 76.0781C235.885 76.8854 237.148 77.2891 238.711 77.2891ZM279.453 41.5078C280.052 41.5078 280.742 41.5469 281.523 41.625C282.331 41.6771 282.982 41.7552 283.477 41.8594L282.578 53.0312C282.188 52.901 281.628 52.8099 280.898 52.7578C280.195 52.6797 279.583 52.6406 279.062 52.6406C277.526 52.6406 276.029 52.8359 274.57 53.2266C273.138 53.6172 271.849 54.2552 270.703 55.1406C269.557 56 268.646 57.1458 267.969 58.5781C267.318 59.9844 266.992 61.7161 266.992 63.7734V86H255.078V42.3281H264.102L265.859 49.6719H266.445C267.305 48.1875 268.372 46.8333 269.648 45.6094C270.951 44.3594 272.422 43.3698 274.062 42.6406C275.729 41.8854 277.526 41.5078 279.453 41.5078ZM309.297 41.4297C315.156 41.4297 319.648 42.7057 322.773 45.2578C325.898 47.8099 327.461 51.6901 327.461 56.8984V86H319.141L316.836 80.0625H316.523C315.273 81.625 313.997 82.901 312.695 83.8906C311.393 84.8802 309.896 85.6094 308.203 86.0781C306.51 86.5469 304.453 86.7812 302.031 86.7812C299.453 86.7812 297.135 86.2865 295.078 85.2969C293.047 84.3073 291.445 82.7969 290.273 80.7656C289.102 78.7083 288.516 76.1042 288.516 72.9531C288.516 68.3177 290.143 64.9062 293.398 62.7188C296.654 60.5052 301.536 59.2812 308.047 59.0469L315.625 58.8125V56.8984C315.625 54.6068 315.026 52.9271 313.828 51.8594C312.63 50.7917 310.964 50.2578 308.828 50.2578C306.719 50.2578 304.648 50.5573 302.617 51.1562C300.586 51.7552 298.555 52.5104 296.523 53.4219L292.578 45.375C294.896 44.151 297.487 43.1875 300.352 42.4844C303.242 41.7812 306.224 41.4297 309.297 41.4297ZM315.625 65.7656L311.016 65.9219C307.161 66.026 304.479 66.7161 302.969 67.9922C301.484 69.2682 300.742 70.9479 300.742 73.0312C300.742 74.8542 301.276 76.1562 302.344 76.9375C303.411 77.6927 304.805 78.0703 306.523 78.0703C309.076 78.0703 311.224 77.3151 312.969 75.8047C314.74 74.2943 315.625 72.1458 315.625 69.3594V65.7656ZM357.5 86.7812C353.177 86.7812 349.492 86 346.445 84.4375C343.398 82.849 341.081 80.401 339.492 77.0938C337.904 73.7865 337.109 69.5547 337.109 64.3984C337.109 59.0599 338.008 54.7109 339.805 51.3516C341.628 47.9661 344.141 45.4792 347.344 43.8906C350.573 42.3021 354.31 41.5078 358.555 41.5078C361.576 41.5078 364.18 41.8073 366.367 42.4062C368.581 42.9792 370.508 43.6693 372.148 44.4766L368.633 53.6953C366.758 52.9401 365.013 52.3281 363.398 51.8594C361.784 51.3646 360.169 51.1172 358.555 51.1172C356.471 51.1172 354.74 51.612 353.359 52.6016C351.979 53.5651 350.951 55.0234 350.273 56.9766C349.596 58.9297 349.258 61.3776 349.258 64.3203C349.258 67.2109 349.622 69.6068 350.352 71.5078C351.081 73.4089 352.135 74.8281 353.516 75.7656C354.896 76.6771 356.576 77.1328 358.555 77.1328C361.029 77.1328 363.229 76.8073 365.156 76.1562C367.083 75.4792 368.958 74.5417 370.781 73.3438V83.5391C368.958 84.6849 367.044 85.5052 365.039 86C363.06 86.5208 360.547 86.7812 357.5 86.7812ZM399.336 77.2891C400.638 77.2891 401.901 77.1589 403.125 76.8984C404.375 76.638 405.612 76.3125 406.836 75.9219V84.7891C405.56 85.362 403.971 85.8307 402.07 86.1953C400.195 86.5859 398.138 86.7812 395.898 86.7812C393.294 86.7812 390.951 86.3646 388.867 85.5312C386.81 84.6719 385.182 83.2005 383.984 81.1172C382.812 79.0078 382.227 76.0781 382.227 72.3281V51.2734H376.523V46.2344L383.086 42.25L386.523 33.0312H394.141V42.3281H406.367V51.2734H394.141V72.3281C394.141 73.9948 394.609 75.2448 395.547 76.0781C396.51 76.8854 397.773 77.2891 399.336 77.2891Z" fill="url(#paint1_linear_413_4)"/>
<defs>
<linearGradient id="paint0_linear_413_4" x1="15.5" y1="24" x2="87.5" y2="98.5" gradientUnits="userSpaceOnUse">
<stop stop-color="#377DFF"/>
<stop offset="0.994792" stop-color="#204C9F"/>
</linearGradient>
<linearGradient id="paint1_linear_413_4" x1="198.125" y1="-7.51725" x2="359.087" y2="139.954" gradientUnits="userSpaceOnUse">
<stop stop-color="#367BFC"/>
<stop offset="1" stop-color="#154396"/>
</linearGradient>
</defs>
</svg>
