<svg width="109" height="109" viewBox="0 0 109 109" fill="none" xmlns="http://www.w3.org/2000/svg">
<path d="M47.5 4.04145C51.8316 1.54059 57.1684 1.54059 61.5 4.04145L94.6984 23.2085C99.03 25.7094 101.698 30.3312 101.698 35.3329V73.6671C101.698 78.6688 99.03 83.2906 94.6984 85.7915L61.5 104.959C57.1684 107.459 51.8316 107.459 47.5 104.959L14.3016 85.7915C9.97 83.2906 7.30162 78.6688 7.30162 73.6671V35.3329C7.30162 30.3312 9.97 25.7094 14.3016 23.2085L47.5 4.04145Z" fill="url(#paint0_linear_412_46)"/>
<mask id="path-2-inside-1_412_46" fill="white">
<path fill-rule="evenodd" clip-rule="evenodd" d="M69.5998 80.7942C71.2441 78.1177 72.1923 74.9677 72.1923 71.5962C72.1923 61.8781 64.3143 54 54.5962 54C44.8781 54 37 61.8781 37 71.5962C37 74.9677 37.9482 78.1177 39.5925 80.7942H39.3574L40.0558 81.509C41.2189 83.2117 42.6733 84.6996 44.3471 85.9011L54.5962 96.3908L64.8452 85.9011C66.5191 84.6996 67.9734 83.2117 69.1365 81.509L69.8349 80.7942H69.5998Z"/>
</mask>
<path d="M69.5998 80.7942L66.1916 78.7003L62.4478 84.7942H69.5998V80.7942ZM39.5925 80.7942V84.7942H46.7445L43.0007 78.7003L39.5925 80.7942ZM39.3574 80.7942V76.7942H29.8569L36.4964 83.5896L39.3574 80.7942ZM40.0558 81.509L43.3588 79.2528L43.1614 78.9638L42.9169 78.7135L40.0558 81.509ZM44.3471 85.9011L47.2082 83.1056L46.9637 82.8554L46.6795 82.6514L44.3471 85.9011ZM54.5962 96.3908L51.7351 99.1862L54.5962 102.114L57.4572 99.1862L54.5962 96.3908ZM64.8452 85.9011L62.5128 82.6514L62.2286 82.8554L61.9841 83.1056L64.8452 85.9011ZM69.1365 81.509L66.2754 78.7136L66.0309 78.9638L65.8335 79.2528L69.1365 81.509ZM69.8349 80.7942L72.696 83.5896L79.3354 76.7942H69.8349V80.7942ZM68.1923 71.5962C68.1923 74.2076 67.4601 76.6357 66.1916 78.7003L73.008 82.888C75.0282 79.5998 76.1923 75.7278 76.1923 71.5962H68.1923ZM54.5962 58C62.1051 58 68.1923 64.0872 68.1923 71.5962H76.1923C76.1923 59.6689 66.5234 50 54.5962 50V58ZM41 71.5962C41 64.0872 47.0872 58 54.5962 58V50C42.6689 50 33 59.6689 33 71.5962H41ZM43.0007 78.7003C41.7323 76.6357 41 74.2076 41 71.5962H33C33 75.7278 34.1642 79.5998 36.1843 82.888L43.0007 78.7003ZM39.5925 76.7942H39.3574V84.7942H39.5925V76.7942ZM36.4964 83.5896L37.1948 84.3044L42.9169 78.7135L42.2185 77.9988L36.4964 83.5896ZM46.6795 82.6514C45.3843 81.7218 44.2585 80.57 43.3588 79.2528L36.7528 83.7651C38.1793 85.8534 39.9622 87.6775 42.0148 89.1507L46.6795 82.6514ZM41.4861 88.6965L51.7351 99.1862L57.4572 93.5954L47.2082 83.1056L41.4861 88.6965ZM57.4572 99.1862L67.7062 88.6965L61.9841 83.1056L51.7351 93.5954L57.4572 99.1862ZM65.8335 79.2528C64.9338 80.57 63.808 81.7218 62.5128 82.6514L67.1776 89.1507C69.2301 87.6775 71.0131 85.8534 72.4395 83.7651L65.8335 79.2528ZM71.9976 84.3044L72.696 83.5896L66.9738 77.9988L66.2754 78.7136L71.9976 84.3044ZM69.8349 76.7942H69.5998V84.7942H69.8349V76.7942Z" fill="white" mask="url(#path-2-inside-1_412_46)"/>
<mask id="path-4-inside-2_412_46" fill="white">
<path fill-rule="evenodd" clip-rule="evenodd" d="M67.0918 32.0582C69.2167 30.7528 71.7175 30 74.3941 30C82.1093 30 88.3636 36.2544 88.3636 43.9695C88.3636 51.6847 82.1093 57.9391 74.3941 57.9391C71.7175 57.9391 69.2167 57.1863 67.0918 55.8809V56.0675L66.5244 55.5131C65.1726 54.5897 63.9913 53.4351 63.0375 52.1062L54.7098 43.9695L63.0375 35.8329C63.9913 34.504 65.1726 33.3494 66.5244 32.426L67.0918 31.8716V32.0582Z"/>
</mask>
<path d="M67.0918 32.0582L69.1857 35.4664L63.0918 39.2102V32.0582H67.0918ZM67.0918 55.8809H63.0918V48.7289L69.1857 52.4727L67.0918 55.8809ZM67.0918 56.0675H71.0918V65.5681L64.2964 58.9286L67.0918 56.0675ZM66.5244 55.5131L68.7805 52.2101L69.0695 52.4075L69.3198 52.652L66.5244 55.5131ZM63.0375 52.1062L65.8329 49.2451L66.0831 49.4896L66.2871 49.7738L63.0375 52.1062ZM54.7098 43.9695L51.9143 46.8306L48.9861 43.9695L51.9143 41.1085L54.7098 43.9695ZM63.0375 35.8329L66.2871 38.1653L66.0831 38.4495L65.8329 38.6939L63.0375 35.8329ZM66.5244 32.426L69.3198 35.2871L69.0695 35.5316L68.7805 35.729L66.5244 32.426ZM67.0918 31.8716L64.2964 29.0105L71.0918 22.371V31.8716H67.0918ZM74.3941 34C72.4776 34 70.6987 34.5369 69.1857 35.4664L64.998 28.65C67.7346 26.9687 70.9573 26 74.3941 26V34ZM84.3636 43.9695C84.3636 38.4635 79.9001 34 74.3941 34V26C84.3184 26 92.3636 34.0452 92.3636 43.9695H84.3636ZM74.3941 53.9391C79.9001 53.9391 84.3636 49.4756 84.3636 43.9695H92.3636C92.3636 53.8938 84.3184 61.9391 74.3941 61.9391V53.9391ZM69.1857 52.4727C70.6987 53.4022 72.4776 53.9391 74.3941 53.9391V61.9391C70.9573 61.9391 67.7346 60.9704 64.998 59.2891L69.1857 52.4727ZM71.0918 55.8809V56.0675H63.0918V55.8809H71.0918ZM64.2964 58.9286L63.729 58.3741L69.3198 52.652L69.8873 53.2065L64.2964 58.9286ZM66.2871 49.7738C66.9691 50.7241 67.8143 51.5501 68.7805 52.2101L64.2682 58.8161C62.5309 57.6294 61.0135 56.1462 59.7879 54.4386L66.2871 49.7738ZM60.2421 54.9673L51.9143 46.8306L57.5052 41.1085L65.8329 49.2451L60.2421 54.9673ZM51.9143 41.1085L60.2421 32.9718L65.8329 38.6939L57.5052 46.8306L51.9143 41.1085ZM68.7805 35.729C67.8143 36.389 66.9691 37.215 66.2871 38.1653L59.7879 33.5005C61.0135 31.7929 62.5309 30.3097 64.2682 29.123L68.7805 35.729ZM63.7289 29.565L64.2964 29.0105L69.8873 34.7326L69.3198 35.2871L63.7289 29.565ZM71.0918 31.8716V32.0582H63.0918V31.8716H71.0918Z" fill="white" mask="url(#path-4-inside-2_412_46)"/>
<mask id="path-6-inside-3_412_46" fill="white">
<path fill-rule="evenodd" clip-rule="evenodd" d="M42.2718 55.8809C40.147 57.1863 37.6462 57.9391 34.9695 57.9391C27.2544 57.9391 21 51.6847 21 43.9695C21 36.2544 27.2544 30 34.9695 30C37.6462 30 40.147 30.7528 42.2718 32.0582V31.8716L42.8393 32.426C44.1911 33.3494 45.3723 34.504 46.3262 35.8329L54.6539 43.9695L46.3261 52.1062C45.3723 53.4351 44.1911 54.5897 42.8393 55.5131L42.2718 56.0675V55.8809Z"/>
</mask>
<path d="M42.2718 55.8809L40.1779 52.4727L46.2718 48.7289V55.8809H42.2718ZM42.2718 32.0582H46.2718V39.2102L40.1779 35.4664L42.2718 32.0582ZM42.2718 31.8716H38.2718V22.371L45.0672 29.0105L42.2718 31.8716ZM42.8393 32.426L40.5831 35.729L40.2942 35.5316L40.0439 35.2871L42.8393 32.426ZM46.3262 35.8329L43.5307 38.6939L43.2805 38.4495L43.0765 38.1653L46.3262 35.8329ZM54.6539 43.9695L57.4493 41.1085L60.3776 43.9695L57.4493 46.8306L54.6539 43.9695ZM46.3261 52.1062L43.0765 49.7738L43.2805 49.4896L43.5307 49.2452L46.3261 52.1062ZM42.8393 55.5131L40.0439 52.652L40.2942 52.4074L40.5831 52.2101L42.8393 55.5131ZM42.2718 56.0675L45.0672 58.9286L38.2718 65.5681V56.0675H42.2718ZM34.9695 53.9391C36.886 53.9391 38.6649 53.4022 40.1779 52.4727L44.3657 59.2891C41.629 60.9704 38.4063 61.9391 34.9695 61.9391V53.9391ZM25 43.9695C25 49.4756 29.4635 53.9391 34.9695 53.9391V61.9391C25.0452 61.9391 17 53.8938 17 43.9695H25ZM34.9695 34C29.4635 34 25 38.4635 25 43.9695H17C17 34.0452 25.0452 26 34.9695 26V34ZM40.1779 35.4664C38.6649 34.5368 36.886 34 34.9695 34V26C38.4063 26 41.629 26.9687 44.3657 28.65L40.1779 35.4664ZM38.2718 32.0582V31.8716H46.2718V32.0582H38.2718ZM45.0672 29.0105L45.6347 29.5649L40.0439 35.2871L39.4764 34.7326L45.0672 29.0105ZM43.0765 38.1653C42.3945 37.215 41.5493 36.389 40.5831 35.729L45.0954 29.123C46.8328 30.3097 48.3502 31.7929 49.5758 33.5005L43.0765 38.1653ZM49.1216 32.9718L57.4493 41.1085L51.8585 46.8306L43.5307 38.6939L49.1216 32.9718ZM57.4493 46.8306L49.1215 54.9673L43.5307 49.2452L51.8585 41.1085L57.4493 46.8306ZM40.5831 52.2101C41.5494 51.5501 42.3945 50.7241 43.0765 49.7738L49.5757 54.4386C48.3502 56.1462 46.8328 57.6293 45.0954 58.816L40.5831 52.2101ZM45.6347 58.3741L45.0672 58.9286L39.4764 53.2065L40.0439 52.652L45.6347 58.3741ZM38.2718 56.0675V55.8809H46.2718V56.0675H38.2718Z" fill="white" mask="url(#path-6-inside-3_412_46)"/>
<path fill-rule="evenodd" clip-rule="evenodd" d="M45 23C45 28.5228 49.4772 33 55 33C60.5228 33 65 28.5228 65 23H62C62 26.866 58.866 30 55 30C51.134 30 48 26.866 48 23H45Z" fill="white"/>
<defs>
<linearGradient id="paint0_linear_412_46" x1="15.5" y1="20" x2="87.5" y2="94.5" gradientUnits="userSpaceOnUse">
<stop stop-color="#377DFF"/>
<stop offset="0.994792" stop-color="#204C9F"/>
</linearGradient>
</defs>
</svg>
